<?xml version="1.0" encoding="UTF-8"?>
<svg width="948px" height="842px" viewBox="0 0 948 842" version="1.1" xmlns="http://www.w3.org/2000/svg" xmlns:xlink="http://www.w3.org/1999/xlink">
    <title>Path</title>
    <g id="Page-1" stroke="none" stroke-width="1" fill="none" fill-rule="evenodd">
        <g id="Desktop-HD-Copy" transform="translate(-175.000000, -1001.000000)" fill="#A21A1E">
            <g id="Group" transform="translate(175.000000, 1001.000000)">
                <path d="M401.008625,501.403641 C414.442867,501.403641 563.581561,411.122726 646.342035,349.441996 C729.10251,287.761267 743.168072,263.824756 761.209149,234.705984 C768.910787,222.275337 787.395652,164.532329 753.834025,134.03235 C731.459607,113.699031 695.628944,106.734759 646.342035,113.139536 C650.400725,82.4444453 663.462481,56.6937451 685.527303,35.8874354 C718.624537,4.67797093 745.992549,0 774.977816,0 C803.963083,0 831.858587,7.17910496 867.246453,32.8807295 C902.634319,58.5823541 948,143.505409 948,229.609715 C948,315.714022 916.717555,395.791767 907.532748,416.058448 C898.34794,436.325129 875.557012,474.202905 827.750387,519.79912 C795.879303,550.196596 750.337007,573.021117 691.123498,588.272681 C689.435452,613.469208 689.435452,635.79615 691.123498,655.253509 C693.655567,684.439546 747.440482,776.277017 761.209149,790.613022 C770.38826,800.170359 784.642774,808.562987 803.97269,815.790907 L731.02255,815.790907 C742.398386,809.688802 748.086304,804.450767 748.086304,800.076803 C748.086304,795.70284 704.836928,730.091222 618.338174,603.24195 C594.469707,602.564343 575.031408,601.126387 560.023277,598.928083 C545.015146,596.729779 530.387682,593.177978 516.140883,588.272681 C505.58865,631.015519 502.458569,657.92456 506.75064,668.999801 C513.188747,685.612664 548.368007,784.886577 560.023277,806.767044 C567.793457,821.354023 580.753782,833.098341 598.904251,842 L522.064117,842 C537.247781,827.335579 544.839613,816.8511 544.839613,810.546565 C544.839613,801.089762 452.150612,574.304233 438.814594,559.438355 C425.478577,544.572477 404.747863,517.427925 394.312762,517.427925 C383.877662,517.427925 188.910908,570.94341 181.385573,572.534507 C173.860238,574.125604 170.576961,571.600212 167.855922,565.308164 C165.134882,559.016117 167.855922,552.260328 171.292301,549.195138 C174.728681,546.129948 269.478135,483.197127 267.023153,466.09422 C264.568171,448.991313 19.4535484,445.410926 9.21484406,443.685619 C-1.02386033,441.960312 -3.58161081,426.30157 5.89943199,421 C15.3804748,415.69843 385.129819,289.231301 391.276029,287.276073 C397.422239,285.320845 399.219204,290.020056 401.008625,295.308146 C402.798047,300.596236 398.899488,306.868176 397.009649,312.201674 C395.119811,317.535172 319.330716,436.427477 316.057251,441.744282 C312.783785,447.061087 309.51032,450.337815 309.51032,454.319229 C309.51032,458.300643 316.057251,461.818354 316.057251,461.818354 C316.057251,461.818354 387.574384,501.403641 401.008625,501.403641 Z" id="Path"></path>
            </g>
        </g>
    </g>
</svg>