<?xml version="1.0" encoding="UTF-8"?>
<svg width="400px" height="356px" viewBox="0 0 400 356" version="1.1" xmlns="http://www.w3.org/2000/svg" xmlns:xlink="http://www.w3.org/1999/xlink">
    <title>Path</title>
    <g id="Page-1" stroke="none" stroke-width="1" fill="none" fill-rule="evenodd">
        <g id="Desktop-HD-Copy" transform="translate(-175.000000, -1001.000000)" fill="#A21A1E">
            <g id="Group" transform="translate(43.000000, 1001.000000)">
                <path d="M301.201952,211.562718 C306.870408,211.562718 369.798127,173.469505 404.718158,147.44388 C439.63819,121.418256 445.573026,111.318462 453.185295,99.0320607 C456.434931,93.7870621 464.234452,69.4229237 450.073428,56.5537342 C440.632746,47.9742746 425.514322,45.0357635 404.718158,47.7382008 C406.430686,34.7866858 411.941975,23.9214114 421.252027,15.1423778 C435.217104,1.9738274 446.764788,0 458.994859,0 C471.224929,0 482.995184,3.02915821 497.926773,13.8737255 C512.858362,24.7182929 532,60.5508057 532,96.8817365 C532,133.212667 518.800656,167.000746 514.92521,175.552088 C511.049764,184.10343 501.433338,200.085614 481.261767,219.324523 C467.814052,232.150463 448.597893,241.781062 423.61329,248.216321 C422.901035,258.847767 422.901035,268.268418 423.61329,276.478274 C424.681674,288.793058 447.375731,327.543045 453.185295,333.591992 C457.058338,337.624624 463.0729,341.165817 471.228983,344.215572 L440.448333,344.215572 C445.248264,341.640845 447.64823,339.430703 447.64823,337.585149 C447.64823,335.739595 429.399548,308.055368 392.902183,254.532468 C382.8311,254.246558 374.629286,253.639826 368.296741,252.712271 C361.964197,251.784717 355.792271,250.286067 349.780963,248.216321 C345.328544,266.251274 344.007835,277.605299 345.818835,282.278397 C348.535336,289.288044 363.378906,331.175771 368.296741,340.408036 C371.575298,346.562879 377.04379,351.518287 384.702216,355.274262 L352.280218,355.274262 C358.686827,349.086742 361.890132,344.662912 361.890132,342.00277 C361.890132,338.012558 322.780849,242.322461 317.153837,236.049939 C311.526826,229.777416 302.779689,218.324019 298.376693,218.324019 C293.973697,218.324019 211.709244,240.904392 208.533997,241.575741 C205.35875,242.24709 203.973401,241.181524 202.825283,238.526652 C201.677166,235.871779 202.825283,233.021235 204.275233,231.727906 C205.725182,230.434577 245.703854,203.880644 244.667997,196.664228 C243.632139,189.447811 140.208248,187.9371 135.88812,187.209122 C131.567991,186.481144 130.488772,179.87408 134.489212,177.637131 C138.489652,175.400182 294.502033,122.038523 297.095371,121.213533 C299.688709,120.388542 300.446921,122.371332 301.201952,124.602593 C301.956982,126.833855 300.31202,129.480243 299.51462,131.730664 C298.71722,133.981085 266.738699,184.146615 265.35749,186.389993 C263.976281,188.63337 262.595072,190.015956 262.595072,191.695877 C262.595072,193.375799 265.35749,194.860065 265.35749,194.860065 C265.35749,194.860065 295.533495,211.562718 301.201952,211.562718 Z" id="Path"></path>
            </g>
        </g>
    </g>
</svg>