<?xml version="1.0" encoding="UTF-8"?>
<svg width="225px" height="225px" viewBox="0 0 225 225" version="1.1" xmlns="http://www.w3.org/2000/svg" xmlns:xlink="http://www.w3.org/1999/xlink">
    <title>Group 4</title>
    <defs>
        <filter id="filter-1">
            <feColorMatrix in="SourceGraphic" type="matrix" values="0 0 0 0 0.368627 0 0 0 0 0.019608 0 0 0 0 0.007843 0 0 0 1.000000 0"></feColorMatrix>
        </filter>
    </defs>
    <g id="Page-1" stroke="none" stroke-width="1" fill="none" fill-rule="evenodd">
        <g id="Desktop-HD-Copy" transform="translate(-1133.000000, -710.000000)">
            <g filter="url(#filter-1)" id="Group-4">
                <g transform="translate(1133.000000, 710.000000)">
                    <g id="Group-2" transform="translate(0.000000, 20.000000)" fill="#D8D8D8">
                        <ellipse id="Oval" cx="62.428" cy="2.40914097" rx="2.5" ry="2.40914097"></ellipse>
                        <ellipse id="Oval" cx="82.404" cy="2.40914097" rx="2.5" ry="2.40914097"></ellipse>
                        <ellipse id="Oval" cx="102.38" cy="2.40914097" rx="2.5" ry="2.40914097"></ellipse>
                        <ellipse id="Oval" cx="122.356" cy="2.40914097" rx="2.5" ry="2.40914097"></ellipse>
                        <ellipse id="Oval" cx="142.332" cy="2.40914097" rx="2.5" ry="2.40914097"></ellipse>
                        <ellipse id="Oval" cx="162.308" cy="2.40914097" rx="2.5" ry="2.40914097"></ellipse>
                        <ellipse id="Oval" cx="182.284" cy="2.40914097" rx="2.5" ry="2.40914097"></ellipse>
                        <ellipse id="Oval" cx="202.26" cy="2.40914097" rx="2.5" ry="2.40914097"></ellipse>
                        <ellipse id="Oval" cx="222.236" cy="2.40914097" rx="2.5" ry="2.40914097"></ellipse>
                        <ellipse id="Oval" cx="2.5" cy="2.40914097" rx="2.5" ry="2.40914097"></ellipse>
                        <ellipse id="Oval" cx="22.476" cy="2.40914097" rx="2.5" ry="2.40914097"></ellipse>
                        <ellipse id="Oval" cx="42.452" cy="2.40914097" rx="2.5" ry="2.40914097"></ellipse>
                    </g>
                    <g id="Group-2" transform="translate(0.000000, 40.000000)" fill="#D8D8D8">
                        <ellipse id="Oval" cx="62.428" cy="2.40914097" rx="2.5" ry="2.40914097"></ellipse>
                        <ellipse id="Oval" cx="82.404" cy="2.40914097" rx="2.5" ry="2.40914097"></ellipse>
                        <ellipse id="Oval" cx="102.38" cy="2.40914097" rx="2.5" ry="2.40914097"></ellipse>
                        <ellipse id="Oval" cx="122.356" cy="2.40914097" rx="2.5" ry="2.40914097"></ellipse>
                        <ellipse id="Oval" cx="142.332" cy="2.40914097" rx="2.5" ry="2.40914097"></ellipse>
                        <ellipse id="Oval" cx="162.308" cy="2.40914097" rx="2.5" ry="2.40914097"></ellipse>
                        <ellipse id="Oval" cx="182.284" cy="2.40914097" rx="2.5" ry="2.40914097"></ellipse>
                        <ellipse id="Oval" cx="202.26" cy="2.40914097" rx="2.5" ry="2.40914097"></ellipse>
                        <ellipse id="Oval" cx="222.236" cy="2.40914097" rx="2.5" ry="2.40914097"></ellipse>
                        <ellipse id="Oval" cx="2.5" cy="2.40914097" rx="2.5" ry="2.40914097"></ellipse>
                        <ellipse id="Oval" cx="22.476" cy="2.40914097" rx="2.5" ry="2.40914097"></ellipse>
                        <ellipse id="Oval" cx="42.452" cy="2.40914097" rx="2.5" ry="2.40914097"></ellipse>
                    </g>
                    <g id="Group-2" transform="translate(0.000000, 60.000000)" fill="#D8D8D8">
                        <ellipse id="Oval" cx="62.428" cy="2.40914097" rx="2.5" ry="2.40914097"></ellipse>
                        <ellipse id="Oval" cx="82.404" cy="2.40914097" rx="2.5" ry="2.40914097"></ellipse>
                        <ellipse id="Oval" cx="102.38" cy="2.40914097" rx="2.5" ry="2.40914097"></ellipse>
                        <ellipse id="Oval" cx="122.356" cy="2.40914097" rx="2.5" ry="2.40914097"></ellipse>
                        <ellipse id="Oval" cx="142.332" cy="2.40914097" rx="2.5" ry="2.40914097"></ellipse>
                        <ellipse id="Oval" cx="162.308" cy="2.40914097" rx="2.5" ry="2.40914097"></ellipse>
                        <ellipse id="Oval" cx="182.284" cy="2.40914097" rx="2.5" ry="2.40914097"></ellipse>
                        <ellipse id="Oval" cx="202.26" cy="2.40914097" rx="2.5" ry="2.40914097"></ellipse>
                        <ellipse id="Oval" cx="222.236" cy="2.40914097" rx="2.5" ry="2.40914097"></ellipse>
                        <ellipse id="Oval" cx="2.5" cy="2.40914097" rx="2.5" ry="2.40914097"></ellipse>
                        <ellipse id="Oval" cx="22.476" cy="2.40914097" rx="2.5" ry="2.40914097"></ellipse>
                        <ellipse id="Oval" cx="42.452" cy="2.40914097" rx="2.5" ry="2.40914097"></ellipse>
                    </g>
                    <g id="Group-2" transform="translate(0.000000, 80.000000)" fill="#D8D8D8">
                        <ellipse id="Oval" cx="62.428" cy="2.40914097" rx="2.5" ry="2.40914097"></ellipse>
                        <ellipse id="Oval" cx="82.404" cy="2.40914097" rx="2.5" ry="2.40914097"></ellipse>
                        <ellipse id="Oval" cx="102.38" cy="2.40914097" rx="2.5" ry="2.40914097"></ellipse>
                        <ellipse id="Oval" cx="122.356" cy="2.40914097" rx="2.5" ry="2.40914097"></ellipse>
                        <ellipse id="Oval" cx="142.332" cy="2.40914097" rx="2.5" ry="2.40914097"></ellipse>
                        <ellipse id="Oval" cx="162.308" cy="2.40914097" rx="2.5" ry="2.40914097"></ellipse>
                        <ellipse id="Oval" cx="182.284" cy="2.40914097" rx="2.5" ry="2.40914097"></ellipse>
                        <ellipse id="Oval" cx="202.26" cy="2.40914097" rx="2.5" ry="2.40914097"></ellipse>
                        <ellipse id="Oval" cx="222.236" cy="2.40914097" rx="2.5" ry="2.40914097"></ellipse>
                        <ellipse id="Oval" cx="2.5" cy="2.40914097" rx="2.5" ry="2.40914097"></ellipse>
                        <ellipse id="Oval" cx="22.476" cy="2.40914097" rx="2.5" ry="2.40914097"></ellipse>
                        <ellipse id="Oval" cx="42.452" cy="2.40914097" rx="2.5" ry="2.40914097"></ellipse>
                    </g>
                    <g id="Group-2" transform="translate(0.000000, 100.000000)" fill="#D8D8D8">
                        <ellipse id="Oval" cx="62.428" cy="2.40914097" rx="2.5" ry="2.40914097"></ellipse>
                        <ellipse id="Oval" cx="82.404" cy="2.40914097" rx="2.5" ry="2.40914097"></ellipse>
                        <ellipse id="Oval" cx="102.38" cy="2.40914097" rx="2.5" ry="2.40914097"></ellipse>
                        <ellipse id="Oval" cx="122.356" cy="2.40914097" rx="2.5" ry="2.40914097"></ellipse>
                        <ellipse id="Oval" cx="142.332" cy="2.40914097" rx="2.5" ry="2.40914097"></ellipse>
                        <ellipse id="Oval" cx="162.308" cy="2.40914097" rx="2.5" ry="2.40914097"></ellipse>
                        <ellipse id="Oval" cx="182.284" cy="2.40914097" rx="2.5" ry="2.40914097"></ellipse>
                        <ellipse id="Oval" cx="202.26" cy="2.40914097" rx="2.5" ry="2.40914097"></ellipse>
                        <ellipse id="Oval" cx="222.236" cy="2.40914097" rx="2.5" ry="2.40914097"></ellipse>
                        <ellipse id="Oval" cx="2.5" cy="2.40914097" rx="2.5" ry="2.40914097"></ellipse>
                        <ellipse id="Oval" cx="22.476" cy="2.40914097" rx="2.5" ry="2.40914097"></ellipse>
                        <ellipse id="Oval" cx="42.452" cy="2.40914097" rx="2.5" ry="2.40914097"></ellipse>
                    </g>
                    <g id="Group-2" transform="translate(0.000000, 120.000000)" fill="#D8D8D8">
                        <ellipse id="Oval" cx="62.428" cy="2.40914097" rx="2.5" ry="2.40914097"></ellipse>
                        <ellipse id="Oval" cx="82.404" cy="2.40914097" rx="2.5" ry="2.40914097"></ellipse>
                        <ellipse id="Oval" cx="102.38" cy="2.40914097" rx="2.5" ry="2.40914097"></ellipse>
                        <ellipse id="Oval" cx="122.356" cy="2.40914097" rx="2.5" ry="2.40914097"></ellipse>
                        <ellipse id="Oval" cx="142.332" cy="2.40914097" rx="2.5" ry="2.40914097"></ellipse>
                        <ellipse id="Oval" cx="162.308" cy="2.40914097" rx="2.5" ry="2.40914097"></ellipse>
                        <ellipse id="Oval" cx="182.284" cy="2.40914097" rx="2.5" ry="2.40914097"></ellipse>
                        <ellipse id="Oval" cx="202.26" cy="2.40914097" rx="2.5" ry="2.40914097"></ellipse>
                        <ellipse id="Oval" cx="222.236" cy="2.40914097" rx="2.5" ry="2.40914097"></ellipse>
                        <ellipse id="Oval" cx="2.5" cy="2.40914097" rx="2.5" ry="2.40914097"></ellipse>
                        <ellipse id="Oval" cx="22.476" cy="2.40914097" rx="2.5" ry="2.40914097"></ellipse>
                        <ellipse id="Oval" cx="42.452" cy="2.40914097" rx="2.5" ry="2.40914097"></ellipse>
                    </g>
                    <g id="Group-2" transform="translate(0.000000, 140.000000)" fill="#D8D8D8">
                        <ellipse id="Oval" cx="62.428" cy="2.40914097" rx="2.5" ry="2.40914097"></ellipse>
                        <ellipse id="Oval" cx="82.404" cy="2.40914097" rx="2.5" ry="2.40914097"></ellipse>
                        <ellipse id="Oval" cx="102.38" cy="2.40914097" rx="2.5" ry="2.40914097"></ellipse>
                        <ellipse id="Oval" cx="122.356" cy="2.40914097" rx="2.5" ry="2.40914097"></ellipse>
                        <ellipse id="Oval" cx="142.332" cy="2.40914097" rx="2.5" ry="2.40914097"></ellipse>
                        <ellipse id="Oval" cx="162.308" cy="2.40914097" rx="2.5" ry="2.40914097"></ellipse>
                        <ellipse id="Oval" cx="182.284" cy="2.40914097" rx="2.5" ry="2.40914097"></ellipse>
                        <ellipse id="Oval" cx="202.26" cy="2.40914097" rx="2.5" ry="2.40914097"></ellipse>
                        <ellipse id="Oval" cx="222.236" cy="2.40914097" rx="2.5" ry="2.40914097"></ellipse>
                        <ellipse id="Oval" cx="2.5" cy="2.40914097" rx="2.5" ry="2.40914097"></ellipse>
                        <ellipse id="Oval" cx="22.476" cy="2.40914097" rx="2.5" ry="2.40914097"></ellipse>
                        <ellipse id="Oval" cx="42.452" cy="2.40914097" rx="2.5" ry="2.40914097"></ellipse>
                    </g>
                    <g id="Group-2" fill="#D8D8D8">
                        <ellipse id="Oval" cx="62.428" cy="2.40914097" rx="2.5" ry="2.40914097"></ellipse>
                        <ellipse id="Oval" cx="82.404" cy="2.40914097" rx="2.5" ry="2.40914097"></ellipse>
                        <ellipse id="Oval" cx="102.38" cy="2.40914097" rx="2.5" ry="2.40914097"></ellipse>
                        <ellipse id="Oval" cx="122.356" cy="2.40914097" rx="2.5" ry="2.40914097"></ellipse>
                        <ellipse id="Oval" cx="142.332" cy="2.40914097" rx="2.5" ry="2.40914097"></ellipse>
                        <ellipse id="Oval" cx="162.308" cy="2.40914097" rx="2.5" ry="2.40914097"></ellipse>
                        <ellipse id="Oval" cx="182.284" cy="2.40914097" rx="2.5" ry="2.40914097"></ellipse>
                        <ellipse id="Oval" cx="202.26" cy="2.40914097" rx="2.5" ry="2.40914097"></ellipse>
                        <ellipse id="Oval" cx="222.236" cy="2.40914097" rx="2.5" ry="2.40914097"></ellipse>
                        <ellipse id="Oval" cx="2.5" cy="2.40914097" rx="2.5" ry="2.40914097"></ellipse>
                        <ellipse id="Oval" cx="22.476" cy="2.40914097" rx="2.5" ry="2.40914097"></ellipse>
                        <ellipse id="Oval" cx="42.452" cy="2.40914097" rx="2.5" ry="2.40914097"></ellipse>
                    </g>
                    <g id="Group-2" transform="translate(0.000000, 160.000000)" fill="#D8D8D8">
                        <ellipse id="Oval" cx="62.428" cy="2.40914097" rx="2.5" ry="2.40914097"></ellipse>
                        <ellipse id="Oval" cx="82.404" cy="2.40914097" rx="2.5" ry="2.40914097"></ellipse>
                        <ellipse id="Oval" cx="102.38" cy="2.40914097" rx="2.5" ry="2.40914097"></ellipse>
                        <ellipse id="Oval" cx="122.356" cy="2.40914097" rx="2.5" ry="2.40914097"></ellipse>
                        <ellipse id="Oval" cx="142.332" cy="2.40914097" rx="2.5" ry="2.40914097"></ellipse>
                        <ellipse id="Oval" cx="162.308" cy="2.40914097" rx="2.5" ry="2.40914097"></ellipse>
                        <ellipse id="Oval" cx="182.284" cy="2.40914097" rx="2.5" ry="2.40914097"></ellipse>
                        <ellipse id="Oval" cx="202.26" cy="2.40914097" rx="2.5" ry="2.40914097"></ellipse>
                        <ellipse id="Oval" cx="222.236" cy="2.40914097" rx="2.5" ry="2.40914097"></ellipse>
                        <ellipse id="Oval" cx="2.5" cy="2.40914097" rx="2.5" ry="2.40914097"></ellipse>
                        <ellipse id="Oval" cx="22.476" cy="2.40914097" rx="2.5" ry="2.40914097"></ellipse>
                        <ellipse id="Oval" cx="42.452" cy="2.40914097" rx="2.5" ry="2.40914097"></ellipse>
                    </g>
                    <g id="Group-2" transform="translate(0.000000, 180.000000)" fill="#D8D8D8">
                        <ellipse id="Oval" cx="62.428" cy="2.40914097" rx="2.5" ry="2.40914097"></ellipse>
                        <ellipse id="Oval" cx="82.404" cy="2.40914097" rx="2.5" ry="2.40914097"></ellipse>
                        <ellipse id="Oval" cx="102.38" cy="2.40914097" rx="2.5" ry="2.40914097"></ellipse>
                        <ellipse id="Oval" cx="122.356" cy="2.40914097" rx="2.5" ry="2.40914097"></ellipse>
                        <ellipse id="Oval" cx="142.332" cy="2.40914097" rx="2.5" ry="2.40914097"></ellipse>
                        <ellipse id="Oval" cx="162.308" cy="2.40914097" rx="2.5" ry="2.40914097"></ellipse>
                        <ellipse id="Oval" cx="182.284" cy="2.40914097" rx="2.5" ry="2.40914097"></ellipse>
                        <ellipse id="Oval" cx="202.26" cy="2.40914097" rx="2.5" ry="2.40914097"></ellipse>
                        <ellipse id="Oval" cx="222.236" cy="2.40914097" rx="2.5" ry="2.40914097"></ellipse>
                        <ellipse id="Oval" cx="2.5" cy="2.40914097" rx="2.5" ry="2.40914097"></ellipse>
                        <ellipse id="Oval" cx="22.476" cy="2.40914097" rx="2.5" ry="2.40914097"></ellipse>
                        <ellipse id="Oval" cx="42.452" cy="2.40914097" rx="2.5" ry="2.40914097"></ellipse>
                    </g>
                    <g id="Group-2" transform="translate(0.000000, 200.000000)" fill="#D8D8D8">
                        <ellipse id="Oval" cx="62.428" cy="2.40914097" rx="2.5" ry="2.40914097"></ellipse>
                        <ellipse id="Oval" cx="82.404" cy="2.40914097" rx="2.5" ry="2.40914097"></ellipse>
                        <ellipse id="Oval" cx="102.38" cy="2.40914097" rx="2.5" ry="2.40914097"></ellipse>
                        <ellipse id="Oval" cx="122.356" cy="2.40914097" rx="2.5" ry="2.40914097"></ellipse>
                        <ellipse id="Oval" cx="142.332" cy="2.40914097" rx="2.5" ry="2.40914097"></ellipse>
                        <ellipse id="Oval" cx="162.308" cy="2.40914097" rx="2.5" ry="2.40914097"></ellipse>
                        <ellipse id="Oval" cx="182.284" cy="2.40914097" rx="2.5" ry="2.40914097"></ellipse>
                        <ellipse id="Oval" cx="202.26" cy="2.40914097" rx="2.5" ry="2.40914097"></ellipse>
                        <ellipse id="Oval" cx="222.236" cy="2.40914097" rx="2.5" ry="2.40914097"></ellipse>
                        <ellipse id="Oval" cx="2.5" cy="2.40914097" rx="2.5" ry="2.40914097"></ellipse>
                        <ellipse id="Oval" cx="22.476" cy="2.40914097" rx="2.5" ry="2.40914097"></ellipse>
                        <ellipse id="Oval" cx="42.452" cy="2.40914097" rx="2.5" ry="2.40914097"></ellipse>
                    </g>
                    <g id="Group-2" transform="translate(0.000000, 220.000000)" fill="#D8D8D8">
                        <ellipse id="Oval" cx="62.428" cy="2.40914097" rx="2.5" ry="2.40914097"></ellipse>
                        <ellipse id="Oval" cx="82.404" cy="2.40914097" rx="2.5" ry="2.40914097"></ellipse>
                        <ellipse id="Oval" cx="102.38" cy="2.40914097" rx="2.5" ry="2.40914097"></ellipse>
                        <ellipse id="Oval" cx="122.356" cy="2.40914097" rx="2.5" ry="2.40914097"></ellipse>
                        <ellipse id="Oval" cx="142.332" cy="2.40914097" rx="2.5" ry="2.40914097"></ellipse>
                        <ellipse id="Oval" cx="162.308" cy="2.40914097" rx="2.5" ry="2.40914097"></ellipse>
                        <ellipse id="Oval" cx="182.284" cy="2.40914097" rx="2.5" ry="2.40914097"></ellipse>
                        <ellipse id="Oval" cx="202.26" cy="2.40914097" rx="2.5" ry="2.40914097"></ellipse>
                        <ellipse id="Oval" cx="222.236" cy="2.40914097" rx="2.5" ry="2.40914097"></ellipse>
                        <ellipse id="Oval" cx="2.5" cy="2.40914097" rx="2.5" ry="2.40914097"></ellipse>
                        <ellipse id="Oval" cx="22.476" cy="2.40914097" rx="2.5" ry="2.40914097"></ellipse>
                        <ellipse id="Oval" cx="42.452" cy="2.40914097" rx="2.5" ry="2.40914097"></ellipse>
                    </g>
                </g>
            </g>
        </g>
    </g>
</svg>