<?xml version="1.0" encoding="UTF-8"?>
<svg width="593px" height="527px" viewBox="0 0 593 527" version="1.1" xmlns="http://www.w3.org/2000/svg" xmlns:xlink="http://www.w3.org/1999/xlink">
    <title>Group</title>
    <g id="Page-1" stroke="none" stroke-width="1" fill="none" fill-rule="evenodd">
        <g id="Desktop-HD-Copy" transform="translate(-199.000000, -2085.000000)">
            <g id="Group-8" transform="translate(178.000000, 2058.000000)">
                <g id="Group" transform="translate(21.000000, 27.000000)">
                    <path d="M250.841893,313.823894 C259.24538,313.823894 352.535723,257.317906 404.30467,218.712508 C456.073617,180.107111 464.872011,165.125471 476.1572,146.900301 C480.974786,139.120074 492.537575,102.979261 471.543857,83.8896063 C457.548045,71.1631701 435.134983,66.8042972 404.30467,70.8129875 C406.843491,51.6012146 415.013978,35.4840899 428.81613,22.4616134 C449.519357,2.92789867 466.638799,0 484.769878,0 C502.900958,0 520.350361,4.49333529 542.486441,20.579744 C564.622522,36.6661527 593,89.8187064 593,143.710594 C593,197.602481 573.431973,247.7224 567.686624,260.407128 C561.941275,273.091856 547.684924,296.799205 517.780569,325.337454 C497.844332,344.362953 469.356377,358.648609 432.316703,368.194421 C431.260784,383.964694 431.260784,397.938921 432.316703,410.117101 C433.900581,428.384372 467.544521,485.864594 476.1572,494.837366 C481.898985,500.819215 490.815575,506.072083 502.906968,510.595971 L457.274654,510.595971 C464.390552,506.77672 467.948501,503.498283 467.948501,500.76066 C467.948501,498.023036 440.894829,456.957332 386.787487,377.563548 C371.857106,377.13944 359.697916,376.239437 350.309919,374.863539 C340.921922,373.487641 331.772041,371.264601 322.860278,368.194421 C316.259567,394.946768 314.301615,411.788887 316.986424,418.720778 C321.013636,429.118615 343.019228,491.253237 350.309919,504.948019 C355.17038,514.077874 363.277418,521.428534 374.631035,527 L326.565423,527 C336.063221,517.821675 340.812121,511.259537 340.812121,507.313587 C340.812121,501.394661 282.832608,359.451699 274.490564,350.147284 C266.148519,340.842868 253.180889,323.853345 246.653447,323.853345 C240.126006,323.853345 118.168954,357.348191 113.461651,358.344044 C108.754347,359.339897 106.700568,357.759277 104.998483,353.821143 C103.296398,349.883009 104.998483,345.654623 107.148032,343.736149 C109.297582,341.817675 168.565964,302.428606 167.030305,291.724055 C165.494647,281.019504 12.1687281,278.778573 5.76413769,277.698719 C-0.640452719,276.618865 -2.24039579,266.818203 3.69025651,263.5 C9.62090881,260.181797 240.909265,181.027192 244.753888,179.803433 C248.59851,178.579674 249.722561,181.520866 250.841893,184.830633 C251.961226,188.1404 249.52257,192.065949 248.340424,195.404136 C247.158278,198.742323 199.750121,273.155915 197.702478,276.483654 C195.654836,279.811393 193.607194,281.862267 193.607194,284.354197 C193.607194,286.846127 197.702478,289.047829 197.702478,289.047829 C197.702478,289.047829 242.438407,313.823894 250.841893,313.823894 Z" id="Path" fill="#B80F0A"></path>
                    <path d="M212,280.696505 C212,283.698004 215.459331,285.219722 219.124276,286.968127 C227.472751,290.950866 240.800292,296.681871 249.296694,298.633951 C252.426046,299.352931 255.360172,298.823762 255.934874,298.633951 C262.060985,296.610639 410.58083,204.236912 411.963213,202.931 C413.345596,201.625088 413.345596,197.75911 411.963213,196.58637 C411.041625,195.804543 408.772172,195.804543 405.154856,196.58637 C296.683695,241.480958 234.673501,267.619668 219.124276,275.0025 C216.521263,276.238421 212,277.695006 212,280.696505 Z" id="Path-2" fill="#1A191B"></path>
                </g>
            </g>
        </g>
    </g>
</svg>