<?xml version="1.0" encoding="UTF-8"?>
<svg width="470px" height="393px" viewBox="0 0 470 393" version="1.1" xmlns="http://www.w3.org/2000/svg" xmlns:xlink="http://www.w3.org/1999/xlink">
    <title>Group</title>
    <g id="Page-1" stroke="none" stroke-width="1" fill="none" fill-rule="evenodd">
        <g id="Desktop-HD-Copy" transform="translate(-728.000000, -395.000000)">
            <g id="Group-2" transform="translate(713.000000, 341.000000)">
                <g id="Group" transform="translate(15.000000, 54.000000)">
                    <path d="M198.812293,233.681743 C205.472729,233.681743 279.412799,191.605859 320.443836,162.859238 C361.474873,134.112617 368.448306,122.956883 377.392722,109.38593 C381.211044,103.592563 390.375481,76.6811374 373.736278,62.4664654 C362.643476,52.9900175 344.879329,49.744283 320.443836,52.729262 C322.456056,38.4236573 328.931821,26.4224112 339.871131,16.7255237 C356.280098,2.18019239 369.848626,0 384.218959,0 C398.589292,0 412.419342,3.34585875 429.963959,15.3242329 C447.508576,27.3026071 470,66.8814334 470,107.010788 C470,147.140142 454.490771,184.460786 449.937122,193.906177 C445.383472,203.351568 434.084172,221.0047 410.382576,242.25505 C394.581511,256.421951 372.002525,267.059436 342.645616,274.167505 C341.808716,285.910476 341.808716,296.316063 342.645616,305.384264 C343.900967,318.986567 370.566484,361.787892 377.392722,368.469261 C381.943547,372.923507 389.010658,376.834934 398.594055,380.203544 L362.426791,380.203544 C368.06671,377.359626 370.88667,374.918413 370.88667,372.879905 C370.88667,370.841397 349.444468,340.262765 306.560065,281.14401 C294.726542,280.828208 285.089411,280.158041 277.648671,279.13351 C270.207931,278.108979 262.955918,276.453644 255.892632,274.167505 C250.661039,294.088025 249.109206,306.629121 251.237132,311.790795 C254.42902,319.533305 271.870214,365.800422 277.648671,375.997926 C281.500976,382.796262 287.926453,388.269762 296.925103,392.418426 L258.829256,392.418426 C266.357022,385.583997 270.120905,380.697652 270.120905,377.759391 C270.120905,373.352 224.167497,267.657438 217.555759,260.72912 C210.94402,253.800801 200.666134,241.149943 195.492614,241.149943 C190.319094,241.149943 93.6583615,266.09111 89.9274465,266.832649 C86.1965315,267.574188 84.5687466,266.397216 83.219708,263.464774 C81.8706695,260.532333 83.219708,257.383763 84.9233984,255.955216 C86.6270888,254.526668 133.602029,225.196504 132.384896,217.225606 C131.167764,209.254708 9.64469174,207.586051 4.56854083,206.781962 C-0.507610081,205.977874 -1.77569312,198.680037 2.92482388,196.209213 C7.62534088,193.738389 190.939889,134.797734 193.987061,133.88649 C197.034233,132.975246 197.925133,135.165337 198.812293,137.629879 C199.699454,140.09442 197.766624,143.01749 196.829678,145.503194 C195.892733,147.988898 158.317971,203.399268 156.69505,205.877192 C155.07213,208.355117 153.449209,209.882253 153.449209,211.737811 C153.449209,213.593369 156.69505,215.232816 156.69505,215.232816 C156.69505,215.232816 192.151857,233.681743 198.812293,233.681743 Z" id="Path" fill="#A21A1E"></path>
                    <path d="M167.792706,212.121645 C167.792706,214.172126 170.556313,215.211692 173.484181,216.406119 C180.15365,219.126936 190.800818,223.042085 197.588463,224.375653 C200.088454,224.866826 202.432482,224.505322 202.891603,224.375653 C207.785659,222.993422 326.435885,159.888102 327.540249,158.995965 C328.644613,158.103828 328.644613,155.462777 327.540249,154.661616 C326.804006,154.12751 324.990975,154.12751 322.101157,154.661616 C235.445211,185.331456 185.906219,203.188175 173.484181,208.231773 C171.404674,209.076096 167.792706,210.071165 167.792706,212.121645 Z" id="Path-2" fill="#1A191B"></path>
                </g>
            </g>
        </g>
    </g>
</svg>