<?xml version="1.0" encoding="UTF-8"?>
<svg width="200px" height="200px" viewBox="0 0 200 200" version="1.1" xmlns="http://www.w3.org/2000/svg" xmlns:xlink="http://www.w3.org/1999/xlink">
    <title>Group 9</title>
    <defs>
        <filter id="filter-1">
            <feColorMatrix in="SourceGraphic" type="matrix" values="0 0 0 0 0.929412 0 0 0 0 0.223529 0 0 0 0 0.156863 0 0 0 1.000000 0"></feColorMatrix>
        </filter>
        <rect id="path-2" x="0" y="0" width="200" height="200"></rect>
    </defs>
    <g id="Page-1" stroke="none" stroke-width="1" fill="none" fill-rule="evenodd">
        <g id="Desktop-HD-Copy" transform="translate(-981.000000, -172.000000)">
            <g id="Group-3" transform="translate(720.000000, 0.000000)">
                <g id="Group-6" transform="translate(-100.000000, -100.000000)">
                    <g filter="url(#filter-1)" id="Group-9">
                        <g transform="translate(361.000000, 272.000000)">
                            <mask id="mask-3" fill="white">
                                <use xlink:href="#path-2"></use>
                            </mask>
                            <g id="Rectangle"></g>
                            <g id="Group-8" mask="url(#mask-3)" fill="#680F2E">
                                <g transform="translate(99.512340, 100.448647) rotate(45.000000) translate(-99.512340, -100.448647) translate(-75.660074, -75.413422)" id="Rectangle">
                                    <rect x="0" y="153.6" width="349.62649" height="4.8"></rect>
                                    <rect x="0" y="140.8" width="349.62649" height="4.8"></rect>
                                    <rect x="0" y="128" width="349.62649" height="4.8"></rect>
                                    <rect x="0" y="115.2" width="349.62649" height="4.8"></rect>
                                    <rect x="0" y="102.4" width="349.62649" height="4.8"></rect>
                                    <rect x="0" y="89.6" width="349.62649" height="4.8"></rect>
                                    <rect x="0" y="76.8" width="349.62649" height="4.8"></rect>
                                    <rect x="0" y="64" width="349.62649" height="4.8"></rect>
                                    <rect x="0" y="51.2" width="349.62649" height="4.8"></rect>
                                    <rect x="0" y="38.4" width="349.62649" height="4.8"></rect>
                                    <rect x="0" y="25.6" width="349.62649" height="4.8"></rect>
                                    <rect x="0" y="12.8" width="349.62649" height="4.8"></rect>
                                    <rect x="4.88783656e-13" y="0" width="349.62649" height="4.8"></rect>
                                    <rect x="0" y="166.4" width="349.62649" height="4.8"></rect>
                                    <rect x="0" y="179.2" width="349.62649" height="4.8"></rect>
                                    <rect x="0" y="192" width="349.62649" height="4.8"></rect>
                                    <rect x="0" y="204.8" width="349.62649" height="4.8"></rect>
                                    <rect x="0" y="217.6" width="349.62649" height="4.8"></rect>
                                    <rect x="0" y="230.4" width="349.62649" height="4.8"></rect>
                                    <rect x="0" y="243.2" width="349.62649" height="4.8"></rect>
                                    <rect x="0" y="256" width="349.62649" height="4.8"></rect>
                                    <rect x="0" y="268.8" width="349.62649" height="4.8"></rect>
                                    <rect x="0" y="281.6" width="349.62649" height="4.8"></rect>
                                    <rect x="0" y="294.4" width="349.62649" height="4.8"></rect>
                                    <rect x="0" y="307.2" width="349.62649" height="4.8"></rect>
                                    <rect x="0" y="320" width="349.62649" height="4.8"></rect>
                                    <rect x="0" y="332.8" width="349.62649" height="4.8"></rect>
                                    <rect x="0" y="345.6" width="349.62649" height="4.8"></rect>
                                </g>
                            </g>
                        </g>
                    </g>
                </g>
            </g>
        </g>
    </g>
</svg>